<svg xmlns="http://www.w3.org/2000/svg" viewBox="0 0 522.3 221.54"><defs><style>.cls-1{fill:#f47a3c;}</style></defs><g id="Layer_2" data-name="Layer 2"><g id="Layer_1-2" data-name="Layer 1"><rect class="cls-1" x="42.35" y="166.15" width="437.6" height="13.85"/><rect class="cls-1" x="28.23" y="180" width="465.83" height="13.85"/><rect class="cls-1" x="56.46" y="152.31" width="409.37" height="13.85"/><rect class="cls-1" x="70.58" y="138.46" width="268.21" height="13.85"/><rect class="cls-1" x="84.7" y="124.62" width="268.21" height="13.85"/><rect class="cls-1" x="183.51" y="27.69" width="155.28" height="13.85"/><rect class="cls-1" x="169.39" y="41.54" width="183.51" height="13.85"/><rect class="cls-1" x="155.28" y="55.38" width="211.74" height="13.85"/><rect class="cls-1" x="127.05" y="83.08" width="268.21" height="13.85"/><rect class="cls-1" x="98.81" y="110.77" width="324.67" height="13.85"/><rect class="cls-1" x="141.16" y="69.23" width="239.98" height="13.85"/><rect class="cls-1" x="112.93" y="96.92" width="296.44" height="13.85"/><rect class="cls-1" x="197.63" y="13.85" width="127.05" height="13.85"/><rect class="cls-1" x="225.86" width="70.58" height="13.85"/><rect class="cls-1" x="225.86" y="124.62" width="211.74" height="13.85"/><rect class="cls-1" x="225.86" y="138.46" width="225.86" height="13.85"/><rect class="cls-1" x="14.12" y="193.85" width="494.07" height="13.85" transform="translate(522.3 401.54) rotate(180)"/><rect class="cls-1" y="207.69" width="522.3" height="13.85" transform="translate(522.3 429.23) rotate(180)"/></g></g></svg>