<svg xmlns="http://www.w3.org/2000/svg" viewBox="0 0 720.05 459.33"><defs><style>.cls-1{opacity:0.25;}.cls-2,.cls-3,.cls-4,.cls-5,.cls-6,.cls-7{fill:#fff;}.cls-3{opacity:0.5;}.cls-4{opacity:0.2;}.cls-5{opacity:0.4;}.cls-6{opacity:0.6;}.cls-7{opacity:0.1;}</style></defs><g id="Layer_2" data-name="Layer 2"><g id="Layer_1-2" data-name="Layer 1"><g class="cls-1"><rect class="cls-2" x="41.28" y="33.96" width="19.83" height="19.83"/><rect class="cls-3" x="53.9" y="46.58" width="14.41" height="14.41"/><rect class="cls-4" x="127.23" y="259.33" width="7.92" height="7.92"/><rect class="cls-4" x="91.5" y="219.38" width="12.38" height="12.38"/><rect class="cls-5" x="80.72" y="134.5" width="21.56" height="21.56"/><rect class="cls-2" x="131.19" y="173.19" width="15" height="15"/><rect class="cls-6" x="131.19" y="143.19" width="15" height="15"/><rect class="cls-5" x="131.19" y="113.19" width="15" height="15"/><rect class="cls-4" x="131.19" y="83.19" width="15" height="15"/><rect class="cls-7" x="131.19" y="53.19" width="15" height="15"/><rect class="cls-4" x="195.19" y="169.23" width="7.92" height="7.92"/><rect class="cls-5" x="184.41" y="237.28" width="21.56" height="21.56"/><rect class="cls-2" x="227.27" y="188.19" width="19.83" height="19.83"/><rect class="cls-3" x="239.89" y="200.81" width="14.41" height="14.41"/><rect class="cls-4" x="16.23" y="146.73" width="7.92" height="7.92"/><rect class="cls-2" x="212.27" y="53.19" width="15" height="15"/><rect class="cls-4" x="180.45" y="105.27" width="7.92" height="7.92"/><rect class="cls-4" x="240.91" y="128.31" width="12.38" height="12.38"/><rect class="cls-4" x="266" y="62" width="12.38" height="12.38"/><rect class="cls-2" x="24.15" y="398.69" width="15" height="15"/><rect class="cls-6" x="24.15" y="368.69" width="15" height="15"/><rect class="cls-5" x="24.15" y="338.69" width="15" height="15"/><rect class="cls-4" x="24.15" y="308.69" width="15" height="15"/><rect class="cls-7" x="24.15" y="278.69" width="15" height="15"/><rect class="cls-4" x="114.85" y="6.19" width="12.38" height="12.38"/><rect class="cls-4" width="12.38" height="12.38"/><rect class="cls-2" x="84.17" y="302.67" width="19.83" height="19.83"/><rect class="cls-3" x="96.79" y="315.29" width="14.41" height="14.41"/><rect class="cls-4" x="156" y="370" width="12.38" height="12.38"/><rect class="cls-4" x="90.12" y="394.73" width="7.92" height="7.92"/><rect class="cls-4" x="158.23" y="451.41" width="7.92" height="7.92"/><rect class="cls-2" x="251" y="436.19" width="15" height="15"/><rect class="cls-6" x="251" y="406.19" width="15" height="15"/><rect class="cls-5" x="251" y="376.19" width="15" height="15"/><rect class="cls-4" x="251" y="346.19" width="15" height="15"/><rect class="cls-7" x="251" y="316.19" width="15" height="15"/><rect class="cls-4" x="195.19" y="304.73" width="7.92" height="7.92"/><rect class="cls-4" x="278.38" y="255.37" width="7.92" height="7.92"/><rect class="cls-4" x="191.23" y="8.42" width="7.92" height="7.92"/><rect class="cls-4" y="114.5" width="12.38" height="12.38"/><rect class="cls-2" x="356.69" y="33.96" width="19.83" height="19.83"/><rect class="cls-3" x="369.31" y="46.58" width="14.41" height="14.41"/><rect class="cls-4" x="442.64" y="259.33" width="7.92" height="7.92"/><rect class="cls-4" x="406.91" y="219.38" width="12.38" height="12.38"/><rect class="cls-5" x="396.13" y="134.5" width="21.56" height="21.56"/><rect class="cls-2" x="446.6" y="173.19" width="15" height="15"/><rect class="cls-6" x="446.6" y="143.19" width="15" height="15"/><rect class="cls-5" x="446.6" y="113.19" width="15" height="15"/><rect class="cls-4" x="446.6" y="83.19" width="15" height="15"/><rect class="cls-7" x="446.6" y="53.19" width="15" height="15"/><rect class="cls-4" x="510.6" y="169.23" width="7.92" height="7.92"/><rect class="cls-5" x="499.82" y="237.28" width="21.56" height="21.56"/><rect class="cls-2" x="529.17" y="430.17" width="19.83" height="19.83"/><rect class="cls-3" x="541.79" y="442.79" width="14.41" height="14.41"/><rect class="cls-4" x="331.64" y="146.73" width="7.92" height="7.92"/><rect class="cls-2" x="527.69" y="53.19" width="15" height="15"/><rect class="cls-4" x="495.86" y="105.27" width="7.92" height="7.92"/><rect class="cls-4" x="556.33" y="128.31" width="12.37" height="12.38"/><rect class="cls-4" x="581.41" y="62" width="12.38" height="12.38"/><rect class="cls-2" x="328.1" y="338.69" width="15" height="15"/><rect class="cls-6" x="328.1" y="308.69" width="15" height="15"/><rect class="cls-5" x="328.1" y="278.69" width="15" height="15"/><rect class="cls-4" x="328.1" y="248.69" width="15" height="15"/><rect class="cls-7" x="328.1" y="218.69" width="15" height="15"/><rect class="cls-4" x="430.26" y="6.19" width="12.38" height="12.38"/><rect class="cls-4" x="315.41" width="12.38" height="12.38"/><rect class="cls-2" x="399.58" y="302.67" width="19.83" height="19.83"/><rect class="cls-3" x="412.21" y="315.29" width="14.41" height="14.41"/><rect class="cls-4" x="471.41" y="370" width="12.38" height="12.38"/><rect class="cls-4" x="405.54" y="394.73" width="7.92" height="7.92"/><rect class="cls-4" x="473.64" y="451.41" width="7.92" height="7.92"/><rect class="cls-2" x="555.01" y="293.19" width="15" height="15"/><rect class="cls-6" x="555.01" y="263.19" width="15" height="15"/><rect class="cls-5" x="555.01" y="233.19" width="15" height="15"/><rect class="cls-4" x="555.01" y="203.19" width="15" height="15"/><rect class="cls-7" x="555.01" y="173.19" width="15" height="15"/><rect class="cls-4" x="510.6" y="304.73" width="7.92" height="7.92"/><rect class="cls-4" x="593.79" y="255.37" width="7.92" height="7.92"/><rect class="cls-4" x="506.64" y="8.42" width="7.92" height="7.92"/><rect class="cls-4" x="315.41" y="114.5" width="12.38" height="12.38"/><rect class="cls-4" x="315.41" y="421.19" width="12.38" height="12.38"/><rect class="cls-4" x="628.94" y="164.99" width="7.92" height="7.92"/><rect class="cls-5" x="618.16" y="233.04" width="21.56" height="21.56"/><rect class="cls-2" x="661.02" y="183.95" width="19.83" height="19.83"/><rect class="cls-3" x="673.64" y="196.57" width="14.41" height="14.41"/><rect class="cls-2" x="646.02" y="48.95" width="15" height="15"/><rect class="cls-4" x="614.19" y="101.03" width="7.92" height="7.92"/><rect class="cls-4" x="674.66" y="124.07" width="12.38" height="12.38"/><rect class="cls-4" x="699.75" y="57.76" width="12.38" height="12.38"/><rect class="cls-4" x="589.75" y="365.76" width="12.38" height="12.38"/><rect class="cls-2" x="673.35" y="391.19" width="15" height="15"/><rect class="cls-6" x="673.35" y="361.19" width="15" height="15"/><rect class="cls-5" x="673.35" y="331.19" width="15" height="15"/><rect class="cls-4" x="673.35" y="301.19" width="15" height="15"/><rect class="cls-7" x="673.35" y="271.19" width="15" height="15"/><rect class="cls-4" x="628.94" y="300.49" width="7.92" height="7.92"/><rect class="cls-4" x="712.12" y="251.13" width="7.92" height="7.92"/><rect class="cls-4" x="624.98" y="4.18" width="7.92" height="7.92"/><rect class="cls-4" x="630.67" y="440.81" width="12.38" height="12.38"/></g></g></g></svg>