<svg width="600" height="600" viewBox="0 0 600 600" fill="none" xmlns="http://www.w3.org/2000/svg">
<path fill-rule="evenodd" clip-rule="evenodd" d="M234.653 423.11C200.34 423.11 168.131 415.786 140.26 402.955L253.653 299.456C237.991 286.607 227.998 267.101 227.998 245.262C227.998 223.025 238.358 203.208 254.514 190.374V175.202H297.582C297.741 175.201 297.9 175.201 298.06 175.201C315.574 175.201 331.587 181.627 343.87 192.251C356.153 181.628 372.165 175.202 389.679 175.202H389.783L389.786 175.2L389.788 175.202H433.225V190.375C449.381 203.21 459.74 223.027 459.74 245.264C459.74 273.227 443.358 297.364 419.668 308.601C411.198 333.608 395.266 356.1 373.942 374.395V406.727H320.338C294.548 417.211 265.447 423.11 234.653 423.11ZM298.059 299.157C310.813 299.157 322.532 294.727 331.762 287.322L343.761 314.34L355.817 287.194C365.071 294.676 376.851 299.157 389.678 299.157C419.443 299.157 443.571 275.029 443.571 245.264C443.571 215.499 419.443 191.371 389.678 191.371C370.338 191.371 353.377 201.558 343.869 216.86C334.361 201.558 317.4 191.371 298.059 191.371C268.295 191.371 244.166 215.499 244.166 245.264C244.166 275.029 268.295 299.157 298.059 299.157ZM298.059 282.989C318.894 282.989 335.784 266.099 335.784 245.264C335.784 224.428 318.894 207.538 298.059 207.538C277.224 207.538 260.334 224.428 260.334 245.264C260.334 266.099 277.224 282.989 298.059 282.989ZM298.059 266.821C309.965 266.821 319.616 257.17 319.616 245.264C319.616 233.358 309.965 223.706 298.059 223.706C286.153 223.706 276.502 233.358 276.502 245.264C276.502 257.17 286.153 266.821 298.059 266.821ZM427.403 245.264C427.403 266.099 410.513 282.989 389.678 282.989C368.843 282.989 351.952 266.099 351.952 245.264C351.952 224.428 368.843 207.538 389.678 207.538C410.513 207.538 427.403 224.428 427.403 245.264ZM411.235 245.264C411.235 257.17 401.584 266.821 389.678 266.821C377.772 266.821 368.12 257.17 368.12 245.264C368.12 233.358 377.772 223.706 389.678 223.706C401.584 223.706 411.235 233.358 411.235 245.264Z" fill="white"/>
</svg>
